<svg width="18" height="18" viewBox="0 0 18 18" fill="none" xmlns="http://www.w3.org/2000/svg">
<mask id="mask0_1153_1142" style="mask-type:alpha" maskUnits="userSpaceOnUse" x="0" y="0" width="18" height="18">
<rect width="18" height="18" fill="#D9D9D9"/>
</mask>
<g mask="url(#mask0_1153_1142)">
<path d="M4.21353 9.51708L7.31596 10.6838L8.48268 13.7862H8.88043L12.1817 5.81803L4.21353 9.11933V9.51708ZM3.69646 14.3033C2.96283 13.5697 2.41261 12.741 2.0458 11.8174C1.67899 10.8937 1.49559 9.95461 1.49559 9.00001C1.49559 8.04542 1.67899 7.10629 2.0458 6.18263C2.41262 5.25897 2.96283 4.43033 3.69646 3.69671C4.43008 2.96309 5.25872 2.41287 6.18238 2.04606C7.10604 1.67925 8.04516 1.49584 8.99976 1.49584C9.95435 1.49584 10.8935 1.67925 11.8171 2.04606C12.7408 2.41287 13.5694 2.96309 14.3031 3.69671C15.0367 4.43033 15.5869 5.25897 15.9537 6.18263C16.3205 7.10629 16.5039 8.04542 16.5039 9.00001C16.5039 9.95461 16.3205 10.8937 15.9537 11.8174C15.5869 12.741 15.0367 13.5697 14.3031 14.3033C13.5694 15.0369 12.7408 15.5872 11.8171 15.954C10.8935 16.3208 9.95435 16.5042 8.99976 16.5042C8.04516 16.5042 7.10604 16.3208 6.18238 15.954C5.25872 15.5872 4.43008 15.0369 3.69646 14.3033Z" fill="white"/>
</g>
</svg>
