<svg width="16" height="16" viewBox="0 0 16 16" fill="none" xmlns="http://www.w3.org/2000/svg">
<mask id="mask0_1153_1166" style="mask-type:alpha" maskUnits="userSpaceOnUse" x="0" y="0" width="16" height="16">
<rect width="16" height="16" fill="#D9D9D9"/>
</mask>
<g mask="url(#mask0_1153_1166)">
<path d="M7.40006 13.2666H3.80523C3.5129 13.2666 3.26118 13.1611 3.05007 12.95C2.83895 12.7389 2.7334 12.4871 2.7334 12.1948V3.80514C2.7334 3.50503 2.83895 3.25137 3.05007 3.04414C3.26118 2.83692 3.5129 2.73331 3.80523 2.73331H7.40006V13.2666ZM6.5334 12.4V3.59998H3.80523C3.74534 3.59998 3.69618 3.6192 3.65773 3.65764C3.61929 3.69609 3.60007 3.74526 3.60007 3.80514V12.1948C3.60007 12.2547 3.61929 12.3039 3.65773 12.3423C3.69618 12.3808 3.74534 12.4 3.80523 12.4H6.5334ZM8.60006 7.39998V2.73331H12.1949C12.495 2.73331 12.7487 2.83692 12.9559 3.04414C13.1631 3.25137 13.2667 3.50503 13.2667 3.80514V7.39998H8.60006ZM9.46673 6.53331H12.4001V3.80514C12.4001 3.74526 12.3808 3.69609 12.3424 3.65764C12.304 3.6192 12.2548 3.59998 12.1949 3.59998H9.46673V6.53331ZM8.60006 13.2666V8.59998H13.2667V12.1948C13.2667 12.4871 13.1631 12.7389 12.9559 12.95C12.7487 13.1611 12.495 13.2666 12.1949 13.2666H8.60006ZM9.50007 12.4H12.1949C12.2548 12.4 12.304 12.3808 12.3424 12.3423C12.3808 12.3039 12.4001 12.2547 12.4001 12.1948V9.48331H9.50007V12.4Z" fill="white"/>
</g>
</svg>
