<svg width="32" height="32" viewBox="0 0 32 32" fill="none" xmlns="http://www.w3.org/2000/svg">
<mask id="mask0_1153_1206" style="mask-type:alpha" maskUnits="userSpaceOnUse" x="0" y="0" width="32" height="32">
<rect width="32" height="32" fill="#D9D9D9"/>
</mask>
<g mask="url(#mask0_1153_1206)">
<path d="M13.4 17.5999L16 16.0316L18.6 17.5999L17.9 14.6333L20.2 12.6666L17.2 12.4086L16 9.59995L14.8 12.4086L11.8 12.6666L14.0857 14.6343L13.4 17.5999ZM8 27.1999V7.19995C8 6.53995 8.235 5.97495 8.705 5.50495C9.175 5.03495 9.74 4.79995 10.4 4.79995H21.6C22.26 4.79995 22.825 5.03495 23.295 5.50495C23.765 5.97495 24 6.53995 24 7.19995V27.1999L16 23.9999L8 27.1999ZM10.4 23.6333L16 21.3999L21.6 23.6333V7.19995H10.4V23.6333Z" fill="white"/>
</g>
</svg>
