<svg width="24" height="24" viewBox="0 0 24 24" fill="none" xmlns="http://www.w3.org/2000/svg">
<mask id="mask0_1153_1211" style="mask-type:alpha" maskUnits="userSpaceOnUse" x="0" y="0" width="24" height="24">
<rect width="24" height="24" fill="#D9D9D9"/>
</mask>
<g mask="url(#mask0_1153_1211)">
<path d="M10.05 13.2L12 12.0237L13.95 13.2L13.425 10.975L15.15 9.5L12.9 9.3065L12 7.2L11.1 9.3065L8.85 9.5L10.5643 10.9757L10.05 13.2ZM6 20.4V5.4C6 4.905 6.17625 4.48125 6.52875 4.12875C6.88125 3.77625 7.305 3.6 7.8 3.6H16.2C16.695 3.6 17.1188 3.77625 17.4713 4.12875C17.8238 4.48125 18 4.905 18 5.4V20.4L12 18L6 20.4ZM7.8 17.725L12 16.05L16.2 17.725V5.4H7.8V17.725Z" fill="#1E1F16"/>
</g>
</svg>
