<svg width="32" height="32" viewBox="0 0 32 32" fill="none" xmlns="http://www.w3.org/2000/svg">
<mask id="mask0_1153_1200" style="mask-type:alpha" maskUnits="userSpaceOnUse" x="0" y="0" width="32" height="32">
<rect width="32" height="32" fill="#D9D9D9"/>
</mask>
<g mask="url(#mask0_1153_1200)">
<path d="M7.99971 19.2001H19.1997V16.8001H7.99971V19.2001ZM7.99971 14.8001H23.9997V12.4001H7.99971V14.8001ZM7.99971 10.4001H23.9997V8.00005H7.99971V10.4001ZM3.19971 28.8001V5.60005C3.19971 4.94005 3.43471 4.37505 3.90471 3.90505C4.37471 3.43505 4.93971 3.20005 5.59971 3.20005H26.3997C27.0597 3.20005 27.6247 3.43505 28.0947 3.90505C28.5647 4.37505 28.7997 4.94005 28.7997 5.60005V21.6001C28.7997 22.2601 28.5647 22.8251 28.0947 23.2951C27.6247 23.7651 27.0597 24.0001 26.3997 24.0001H7.99971L3.19971 28.8001ZM6.99971 21.6001H26.3997V5.60005H5.59971V23.0001L6.99971 21.6001Z" fill="white"/>
</g>
</svg>
