<svg width="20" height="20" viewBox="0 0 20 20" fill="none" xmlns="http://www.w3.org/2000/svg">
<mask id="mask0_1153_1170" style="mask-type:alpha" maskUnits="userSpaceOnUse" x="0" y="0" width="20" height="20">
<rect width="20" height="20" fill="#D9D9D9"/>
</mask>
<g mask="url(#mask0_1153_1170)">
<path d="M3.5 14.5V8.5V8.70833V5.5V14.5ZM3.5 7H16.5V5.5H3.5V7ZM9.85417 16H3.5C3.09722 16 2.74653 15.8507 2.44792 15.5521C2.14931 15.2535 2 14.9028 2 14.5V5.5C2 5.09722 2.14931 4.74653 2.44792 4.44792C2.74653 4.14931 3.09722 4 3.5 4H16.5C16.9125 4 17.2656 4.14931 17.5594 4.44792C17.8531 4.74653 18 5.09951 18 5.50688V9.39583C17.5556 9.10417 17.0729 8.88194 16.5521 8.72917C16.0313 8.57639 15.5069 8.5 14.9792 8.5C14.2708 8.5 13.5938 8.62847 12.9479 8.88542C12.3021 9.14236 11.7222 9.51389 11.2083 10H3.5V14.5H9.5C9.52778 14.7629 9.56944 15.0197 9.625 15.2702C9.68056 15.5206 9.75694 15.7639 9.85417 16ZM16.1042 15.8542L16.8125 15.1458L15.4583 13.7917V12H14.4583V14.2083L16.1042 15.8542ZM14.9583 18C13.8497 18 12.9094 17.6128 12.1373 16.8385C11.3652 16.0641 10.9792 15.1162 10.9792 13.9948C10.9792 12.8733 11.3652 11.9236 12.1373 11.1458C12.9094 10.3681 13.8497 9.97917 14.9583 9.97917C16.0821 9.97917 17.0367 10.3681 17.8221 11.1458C18.6074 11.9236 19 12.8715 19 13.9896C19 15.1076 18.6074 16.0556 17.8221 16.8333C17.0367 17.6111 16.0821 18 14.9583 18Z" fill="#1E1F16"/>
</g>
</svg>
