<svg width="15" height="15" viewBox="0 0 15 15" fill="none" xmlns="http://www.w3.org/2000/svg">
<mask id="mask0_1153_1156" style="mask-type:alpha" maskUnits="userSpaceOnUse" x="0" y="0" width="15" height="15">
<rect width="14.2857" height="14.2857" fill="#D9D9D9"/>
</mask>
<g mask="url(#mask0_1153_1156)">
<path d="M7.14308 10.0448L4.7026 11.5031C4.59348 11.5626 4.48683 11.5874 4.38266 11.5775C4.2785 11.5676 4.18673 11.5329 4.10736 11.4733C4.028 11.4138 3.96848 11.332 3.92879 11.2278C3.88911 11.1236 3.88415 11.017 3.91391 10.9079L4.55379 8.18465L2.39605 6.35429C2.30677 6.27492 2.25221 6.18316 2.23236 6.07899C2.21252 5.97483 2.21748 5.87314 2.24724 5.77393C2.27701 5.67473 2.33157 5.59288 2.41094 5.5284C2.4903 5.46391 2.58951 5.42671 2.70855 5.41679L5.53594 5.16381L6.65201 2.57453C6.70161 2.4654 6.77106 2.38356 6.86034 2.32899C6.94963 2.27443 7.04387 2.24715 7.14308 2.24715C7.24229 2.24715 7.33653 2.27443 7.42582 2.32899C7.5151 2.38356 7.58455 2.4654 7.63415 2.57453L8.75022 5.17869L11.5776 5.41679C11.6967 5.42671 11.7959 5.46639 11.8752 5.53584C11.9546 5.60528 12.0092 5.68961 12.0389 5.78881C12.0687 5.88802 12.0712 5.98723 12.0464 6.08643C12.0216 6.18564 11.9645 6.27492 11.8752 6.35429L9.73237 8.18465L10.3722 10.9079C10.402 11.017 10.397 11.1236 10.3574 11.2278C10.3177 11.332 10.2582 11.4138 10.1788 11.4733C10.0994 11.5329 10.0077 11.5676 9.9035 11.5775C9.79933 11.5874 9.69268 11.5626 9.58356 11.5031L7.14308 10.0448Z" fill="#FFC531"/>
</g>
</svg>
