<svg width="24" height="24" viewBox="0 0 24 24" fill="none" xmlns="http://www.w3.org/2000/svg">
<g clip-path="url(#clip0_1153_1092)">
<rect width="24" height="24" rx="12" fill="white"/>
<mask id="mask0_1153_1092" style="mask-type:alpha" maskUnits="userSpaceOnUse" x="3" y="4" width="18" height="18">
<rect x="3" y="4" width="18" height="18" fill="#D9D9D9"/>
</mask>
<g mask="url(#mask0_1153_1092)">
<path d="M11.9995 19.2452L11.1717 18.501C9.92845 17.3731 8.90032 16.404 8.08732 15.5935C7.27432 14.7828 6.63007 14.0614 6.15457 13.4291C5.67907 12.797 5.34689 12.2203 5.15801 11.6991C4.96901 11.178 4.87451 10.6491 4.87451 10.1126C4.87451 9.04826 5.23339 8.15714 5.95114 7.43926C6.66901 6.72152 7.56014 6.36264 8.62451 6.36264C9.27926 6.36264 9.89801 6.51577 10.4808 6.82202C11.0635 7.12827 11.5698 7.56745 11.9995 8.13958C12.4293 7.56745 12.9355 7.12827 13.5183 6.82202C14.101 6.51577 14.7198 6.36264 15.3745 6.36264C16.4389 6.36264 17.33 6.72152 18.0479 7.43926C18.7656 8.15714 19.1245 9.04826 19.1245 10.1126C19.1245 10.6491 19.03 11.178 18.841 11.6991C18.6521 12.2203 18.32 12.797 17.8444 13.4291C17.3689 14.0614 16.7259 14.7828 15.9153 15.5935C15.1048 16.404 14.0755 17.3731 12.8273 18.501L11.9995 19.2452ZM11.9995 17.7251C13.1995 16.6454 14.187 15.7199 14.962 14.9486C15.737 14.1775 16.3495 13.5076 16.7995 12.9388C17.2495 12.3701 17.562 11.865 17.737 11.4236C17.912 10.9824 17.9995 10.5454 17.9995 10.1126C17.9995 9.36264 17.7495 8.73764 17.2495 8.23764C16.7495 7.73764 16.1245 7.48764 15.3745 7.48764C14.7823 7.48764 14.2349 7.65564 13.7324 7.99164C13.23 8.32777 12.8322 8.79533 12.5389 9.39433H11.4601C11.162 8.79045 10.7629 8.3217 10.2629 7.98808C9.76289 7.65445 9.21676 7.48764 8.62451 7.48764C7.87926 7.48764 7.25545 7.73764 6.75307 8.23764C6.2507 8.73764 5.99951 9.36264 5.99951 10.1126C5.99951 10.5454 6.08701 10.9824 6.26201 11.4236C6.43701 11.865 6.74951 12.3701 7.19951 12.9388C7.64951 13.5076 8.26201 14.1763 9.03701 14.9451C9.81201 15.7138 10.7995 16.6405 11.9995 17.7251Z" fill="#1E1F16"/>
</g>
</g>
<defs>
<clipPath id="clip0_1153_1092">
<rect width="24" height="24" fill="white"/>
</clipPath>
</defs>
</svg>
