<svg width="24" height="24" viewBox="0 0 24 24" fill="none" xmlns="http://www.w3.org/2000/svg">
<g clip-path="url(#clip0_1153_1101)">
<rect width="24" height="24" rx="12" fill="white"/>
<mask id="mask0_1153_1101" style="mask-type:alpha" maskUnits="userSpaceOnUse" x="3" y="4" width="18" height="18">
<rect x="3" y="4" width="18" height="18" fill="#D9D9D9"/>
</mask>
<g mask="url(#mask0_1153_1101)">
<path d="M11.9995 19.2452L11.1717 18.501C9.92845 17.3731 8.90032 16.404 8.08732 15.5935C7.27432 14.7828 6.63007 14.0614 6.15457 13.4291C5.67907 12.797 5.34689 12.2203 5.15801 11.6991C4.96901 11.178 4.87451 10.6491 4.87451 10.1126C4.87451 9.04826 5.23339 8.15714 5.95114 7.43926C6.66901 6.72152 7.56014 6.36264 8.62451 6.36264C9.27926 6.36264 9.89801 6.51577 10.4808 6.82202C11.0635 7.12827 11.5698 7.56745 11.9995 8.13958C12.4293 7.56745 12.9355 7.12827 13.5183 6.82202C14.101 6.51577 14.7198 6.36264 15.3745 6.36264C16.4389 6.36264 17.33 6.72152 18.0479 7.43926C18.7656 8.15714 19.1245 9.04826 19.1245 10.1126C19.1245 10.6491 19.03 11.178 18.841 11.6991C18.6521 12.2203 18.32 12.797 17.8444 13.4291C17.3689 14.0614 16.7259 14.7828 15.9153 15.5935C15.1048 16.404 14.0755 17.3731 12.8273 18.501L11.9995 19.2452Z" fill="#FF3110"/>
</g>
</g>
<defs>
<clipPath id="clip0_1153_1101">
<rect width="24" height="24" fill="white"/>
</clipPath>
</defs>
</svg>
