<svg width="32" height="32" viewBox="0 0 32 32" fill="none" xmlns="http://www.w3.org/2000/svg">
<mask id="mask0_1153_1197" style="mask-type:alpha" maskUnits="userSpaceOnUse" x="0" y="0" width="32" height="32">
<rect width="32" height="32" fill="#D9D9D9"/>
</mask>
<g mask="url(#mask0_1153_1197)">
<path d="M8.80015 19.2C8.80015 20.2222 9.01681 21.1945 9.45015 22.1167C9.88348 23.0389 10.489 23.8556 11.2668 24.5667C11.2446 24.4556 11.2279 24.3445 11.2168 24.2333C11.2057 24.1222 11.2001 24.0111 11.2001 23.9C11.2001 23.3 11.3113 22.7389 11.5335 22.2167C11.7557 21.6945 12.0557 21.2222 12.4335 20.8L16.0001 16.8L19.5668 20.8C19.9446 21.2445 20.2446 21.7278 20.4668 22.25C20.689 22.7722 20.8001 23.3222 20.8001 23.9C20.8001 24.0111 20.7946 24.1278 20.7835 24.25C20.7724 24.3722 20.7557 24.4889 20.7335 24.6C21.5113 23.9556 22.1168 23.1611 22.5501 22.2167C22.9835 21.2722 23.2001 20.2667 23.2001 19.2C23.2001 18.0667 23.0057 16.95 22.6168 15.85C22.2279 14.75 21.6668 13.7333 20.9335 12.8C20.5557 13.0445 20.1613 13.2333 19.7501 13.3667C19.339 13.5 18.889 13.5667 18.4001 13.5667C17.2446 13.5667 16.2279 13.2111 15.3501 12.5C14.4724 11.7889 13.9224 10.8667 13.7001 9.73334C12.9001 10.4667 12.2001 11.2167 11.6001 11.9833C11.0001 12.75 10.489 13.5333 10.0668 14.3333C9.64459 15.1333 9.32792 15.9445 9.11681 16.7667C8.9057 17.5889 8.80015 18.4 8.80015 19.2ZM16.0001 20.4L14.2335 22.4C14.0335 22.6445 13.8779 22.8945 13.7668 23.15C13.6557 23.4056 13.6001 23.6889 13.6001 24C13.6001 24.6667 13.8335 25.2333 14.3001 25.7C14.7668 26.1667 15.3335 26.4 16.0001 26.4C16.6668 26.4 17.2335 26.1667 17.7001 25.7C18.1668 25.2333 18.4001 24.6667 18.4001 24C18.4001 23.6889 18.3446 23.4 18.2335 23.1333C18.1224 22.8667 17.9668 22.6222 17.7668 22.4L16.0001 20.4ZM16.0001 4.80001V8.76668C16.0001 9.43334 16.2335 10 16.7001 10.4667C17.1668 10.9333 17.7335 11.1667 18.4001 11.1667C18.7779 11.1667 19.1279 11.0889 19.4501 10.9333C19.7724 10.7778 20.0446 10.5556 20.2668 10.2667L20.8001 9.60001C22.2224 10.4445 23.3779 11.7611 24.2668 13.55C25.1557 15.3389 25.6001 17.2222 25.6001 19.2C25.6001 21.8667 24.6668 24.1333 22.8001 26C20.9335 27.8667 18.6668 28.8 16.0001 28.8C13.3335 28.8 11.0668 27.8667 9.20015 26C7.33348 24.1333 6.40015 21.8667 6.40015 19.2C6.40015 16.7111 7.24459 14.1945 8.93348 11.65C10.6224 9.10557 12.9779 6.82223 16.0001 4.80001Z" fill="white"/>
</g>
</svg>
