<svg width="20" height="20" viewBox="0 0 20 20" fill="none" xmlns="http://www.w3.org/2000/svg">
<mask id="mask0_1153_1113" style="mask-type:alpha" maskUnits="userSpaceOnUse" x="0" y="0" width="20" height="20">
<rect width="20" height="20" fill="#D9D9D9"/>
</mask>
<g mask="url(#mask0_1153_1113)">
<path d="M3.64591 17.5L2.47925 16.3333L11.0209 7.79167C10.7709 7.20833 10.7362 6.54861 10.9167 5.8125C11.0973 5.07639 11.4931 4.41667 12.1042 3.83333C12.8404 3.09722 13.6598 2.66667 14.5626 2.54167C15.4654 2.41667 16.2015 2.63889 16.7709 3.20833C17.3404 3.77778 17.5626 4.51389 17.4376 5.41667C17.3126 6.31944 16.882 7.13889 16.1459 7.875C15.5626 8.48611 14.9029 8.88194 14.1667 9.0625C13.4306 9.24306 12.7709 9.20833 12.1876 8.95833L11.1459 10L17.4792 16.3333L16.3126 17.5L9.97925 11.2083L3.64591 17.5ZM6.10425 10.375L3.60425 7.875C2.85425 7.125 2.47925 6.22917 2.47925 5.1875C2.47925 4.14583 2.85425 3.25 3.60425 2.5L8.77091 7.70833L6.10425 10.375Z" fill="white"/>
</g>
</svg>
