<svg width="20" height="20" viewBox="0 0 20 20" fill="none" xmlns="http://www.w3.org/2000/svg">
<mask id="mask0_1153_1116" style="mask-type:alpha" maskUnits="userSpaceOnUse" x="0" y="0" width="20" height="20">
<rect width="20" height="20" fill="#D9D9D9"/>
</mask>
<g mask="url(#mask0_1153_1116)">
<path d="M3.33341 16.6667C2.87508 16.6667 2.48272 16.5035 2.15633 16.1771C1.82994 15.8507 1.66675 15.4583 1.66675 15V5C1.66675 4.54167 1.82994 4.1493 2.15633 3.82292C2.48272 3.49653 2.87508 3.33333 3.33341 3.33333H16.6667C17.1251 3.33333 17.5174 3.49653 17.8438 3.82292C18.1702 4.1493 18.3334 4.54167 18.3334 5V10H3.33341V15H11.6667V16.6667H3.33341ZM3.33341 6.66667H16.6667V5H3.33341V6.66667ZM15.8334 18.3333V15.8333H13.3334V14.1667H15.8334V11.6667H17.5001V14.1667H20.0001V15.8333H17.5001V18.3333H15.8334Z" fill="white"/>
</g>
</svg>
