<svg width="20" height="20" viewBox="0 0 20 20" fill="none" xmlns="http://www.w3.org/2000/svg">
<mask id="mask0_1153_1110" style="mask-type:alpha" maskUnits="userSpaceOnUse" x="0" y="0" width="20" height="20">
<rect width="20" height="20" fill="#D9D9D9"/>
</mask>
<g mask="url(#mask0_1153_1110)">
<path d="M10.0001 18.3333C8.8473 18.3333 7.76397 18.1146 6.75008 17.6771C5.73619 17.2396 4.85425 16.6458 4.10425 15.8958C3.35425 15.1458 2.7605 14.2639 2.323 13.25C1.8855 12.2361 1.66675 11.1528 1.66675 10C1.66675 8.84722 1.8855 7.76389 2.323 6.75C2.7605 5.73611 3.35425 4.85417 4.10425 4.10417C4.85425 3.35417 5.73619 2.76042 6.75008 2.32292C7.76397 1.88542 8.8473 1.66667 10.0001 1.66667C12.0279 1.66667 13.8022 2.30208 15.323 3.57292C16.8438 4.84375 17.7918 6.4375 18.1668 8.35417H16.4584C16.1945 7.34028 15.7188 6.43403 15.0313 5.63542C14.3438 4.83681 13.5001 4.23611 12.5001 3.83333V4.16667C12.5001 4.625 12.3369 5.01736 12.0105 5.34375C11.6841 5.67014 11.2917 5.83333 10.8334 5.83333H9.16675V7.5C9.16675 7.73611 9.08689 7.93403 8.92717 8.09375C8.76744 8.25347 8.56953 8.33333 8.33342 8.33333H6.66675V10H8.33342V12.5H7.50008L3.50008 8.5C3.45841 8.75 3.42022 9 3.3855 9.25C3.35078 9.5 3.33341 9.75 3.33341 10C3.33341 11.8194 3.9723 13.3819 5.25008 14.6875C6.52786 15.9931 8.11119 16.6528 10.0001 16.6667V18.3333ZM17.5834 17.9167L14.9167 15.25C14.6251 15.4167 14.3126 15.5556 13.9792 15.6667C13.6459 15.7778 13.2917 15.8333 12.9167 15.8333C11.8751 15.8333 10.9897 15.4687 10.2605 14.7396C9.53133 14.0104 9.16675 13.125 9.16675 12.0833C9.16675 11.0417 9.53133 10.1562 10.2605 9.42708C10.9897 8.69792 11.8751 8.33333 12.9167 8.33333C13.9584 8.33333 14.8438 8.69792 15.573 9.42708C16.3022 10.1562 16.6667 11.0417 16.6667 12.0833C16.6667 12.4583 16.6112 12.8125 16.5001 13.1458C16.389 13.4792 16.2501 13.7917 16.0834 14.0833L18.7501 16.75L17.5834 17.9167ZM12.9167 14.1667C13.5001 14.1667 13.9931 13.9653 14.3959 13.5625C14.7987 13.1597 15.0001 12.6667 15.0001 12.0833C15.0001 11.5 14.7987 11.0069 14.3959 10.6042C13.9931 10.2014 13.5001 10 12.9167 10C12.3334 10 11.8404 10.2014 11.4376 10.6042C11.0348 11.0069 10.8334 11.5 10.8334 12.0833C10.8334 12.6667 11.0348 13.1597 11.4376 13.5625C11.8404 13.9653 12.3334 14.1667 12.9167 14.1667Z" fill="white"/>
</g>
</svg>
