<svg width="20" height="20" viewBox="0 0 20 20" fill="none" xmlns="http://www.w3.org/2000/svg">
<mask id="mask0_1153_1106" style="mask-type:alpha" maskUnits="userSpaceOnUse" x="0" y="0" width="20" height="20">
<rect width="20" height="20" fill="#D9D9D9"/>
</mask>
<g mask="url(#mask0_1153_1106)">
<path d="M3.75 17.5C3.40278 17.5 3.10764 17.3785 2.86458 17.1354C2.62153 16.8924 2.5 16.5972 2.5 16.25V14.6667L5.83333 11.7083V17.5H3.75ZM6.66667 17.5V14.1667H13.3333V17.5H6.66667ZM14.1667 17.5V10.6667L10.6042 7.5L13.125 5.27083L17.0833 8.79167C17.2222 8.91667 17.3264 9.05903 17.3958 9.21875C17.4653 9.37847 17.5 9.54861 17.5 9.72917V16.25C17.5 16.5972 17.3785 16.8924 17.1354 17.1354C16.8924 17.3785 16.5972 17.5 16.25 17.5H14.1667ZM2.5 13.5417V9.72917C2.5 9.54861 2.53472 9.375 2.60417 9.20833C2.67361 9.04167 2.77778 8.90278 2.91667 8.79167L9.16667 3.25C9.27778 3.13889 9.40625 3.05903 9.55208 3.01042C9.69792 2.96181 9.84722 2.9375 10 2.9375C10.1528 2.9375 10.3021 2.96181 10.4479 3.01042C10.5938 3.05903 10.7222 3.13889 10.8333 3.25L12.5 4.72917L2.5 13.5417Z" fill="white"/>
</g>
</svg>
