<svg width="32" height="32" viewBox="0 0 32 32" fill="none" xmlns="http://www.w3.org/2000/svg">
<mask id="mask0_1153_1203" style="mask-type:alpha" maskUnits="userSpaceOnUse" x="0" y="0" width="32" height="32">
<rect width="32" height="32" fill="#D9D9D9"/>
</mask>
<g mask="url(#mask0_1153_1203)">
<path d="M23.9999 17.6001L22.2999 15.9001L25.1332 13.1001C23.111 12.7889 21.1165 13.0167 19.1499 13.7834C17.1832 14.5501 15.3332 15.8223 13.5999 17.6001C14.1554 15.1112 15.4887 13.1001 17.5999 11.5667C19.711 10.0334 22.211 9.26672 25.0999 9.26672L22.2999 6.46672L23.9999 4.80005L30.3999 11.2001L23.9999 17.6001ZM15.9999 28.8001C12.511 25.8223 9.90541 23.0723 8.18319 20.5501C6.46096 18.0278 5.59985 15.7112 5.59985 13.6001C5.59985 10.7112 6.61096 8.25561 8.63319 6.23338C10.6554 4.21116 13.111 3.20005 15.9999 3.20005C16.8665 3.20005 17.711 3.30005 18.5332 3.50005C19.3554 3.70005 20.1554 4.01116 20.9332 4.43338L19.1332 6.23338C18.5776 6.01116 18.0387 5.85005 17.5165 5.75005C16.9943 5.65005 16.4887 5.60005 15.9999 5.60005C13.7776 5.60005 11.8887 6.37783 10.3332 7.93338C8.77763 9.48894 7.99985 11.3778 7.99985 13.6001C7.99985 15.1112 8.67208 16.8723 10.0165 18.8834C11.361 20.8945 13.3554 23.1445 15.9999 25.6334C17.1554 24.5889 18.211 23.5278 19.1665 22.4501C20.1221 21.3723 21.0443 20.2001 21.9332 18.9334L23.6665 20.6667C22.6221 22.1334 21.4832 23.5223 20.2499 24.8334C19.0165 26.1445 17.5999 27.4667 15.9999 28.8001Z" fill="white"/>
</g>
</svg>
