<svg width="17" height="17" viewBox="0 0 17 17" fill="none" xmlns="http://www.w3.org/2000/svg">
<mask id="mask0_1153_1060" style="mask-type:alpha" maskUnits="userSpaceOnUse" x="0" y="0" width="17" height="17">
<rect width="16.9412" height="16.9412" fill="#D9D9D9"/>
</mask>
<g mask="url(#mask0_1153_1060)">
<path d="M8.47055 15.5294C8.08231 15.5294 7.74996 15.3912 7.47349 15.1147C7.19702 14.8382 7.05878 14.5059 7.05878 14.1176H9.88231C9.88231 14.5059 9.74408 14.8382 9.4676 15.1147C9.19113 15.3912 8.85878 15.5294 8.47055 15.5294ZM2.82349 13.4118V12H4.23525V7.05882C4.23525 6.08235 4.52937 5.2147 5.1176 4.45588C5.70584 3.69706 6.47055 3.2 7.41172 2.9647V2.47059C7.41172 2.17647 7.51466 1.92647 7.72055 1.72059C7.92643 1.5147 8.17643 1.41176 8.47055 1.41176C8.76466 1.41176 9.01466 1.5147 9.22055 1.72059C9.42643 1.92647 9.52937 2.17647 9.52937 2.47059V2.7C9.41172 2.93529 9.32349 3.18235 9.26466 3.44117C9.20584 3.7 9.17643 3.9647 9.17643 4.23529C9.17643 5.21176 9.52055 6.04412 10.2088 6.73235C10.897 7.42059 11.7294 7.7647 12.7058 7.7647V12H14.1176V13.4118H2.82349Z" fill="#1E1F16"/>
<circle cx="12.8176" cy="3.81765" r="2.11765" fill="#FF541E"/>
</g>
</svg>
