<svg width="17" height="17" viewBox="0 0 17 17" fill="none" xmlns="http://www.w3.org/2000/svg">
<mask id="mask0_1153_1078" style="mask-type:alpha" maskUnits="userSpaceOnUse" x="0" y="0" width="17" height="17">
<rect width="16.9412" height="16.9412" fill="#D9D9D9"/>
</mask>
<g mask="url(#mask0_1153_1078)">
<path d="M2.82349 13.4118V12H4.23525V7.05883C4.23525 6.08236 4.52937 5.21471 5.1176 4.45588C5.70584 3.69706 6.47055 3.2 7.41172 2.96471V2.47059C7.41172 2.17647 7.51466 1.92647 7.72055 1.72059C7.92643 1.51471 8.17643 1.41177 8.47055 1.41177C8.76466 1.41177 9.01466 1.51471 9.22055 1.72059C9.42643 1.92647 9.52937 2.17647 9.52937 2.47059V2.96471C10.4705 3.2 11.2353 3.69706 11.8235 4.45588C12.4117 5.21471 12.7058 6.08236 12.7058 7.05883V12H14.1176V13.4118H2.82349ZM8.47055 15.5294C8.08231 15.5294 7.74996 15.3912 7.47349 15.1147C7.19702 14.8382 7.05878 14.5059 7.05878 14.1177H9.88231C9.88231 14.5059 9.74407 14.8382 9.4676 15.1147C9.19113 15.3912 8.85878 15.5294 8.47055 15.5294Z" fill="#1E1F16"/>
</g>
</svg>
