<svg width="18" height="18" viewBox="0 0 18 18" fill="none" xmlns="http://www.w3.org/2000/svg">
<mask id="mask0_1153_1215" style="mask-type:alpha" maskUnits="userSpaceOnUse" x="0" y="0" width="18" height="18">
<rect width="18" height="18" fill="#D9D9D9"/>
</mask>
<g mask="url(#mask0_1153_1215)">
<path d="M7.5562 16.2L7.1437 14.0625C6.8562 13.95 6.57808 13.8188 6.30933 13.6688C6.04058 13.5188 5.78745 13.3438 5.54995 13.1438L3.48745 13.8375L2.0437 11.3438L3.67495 9.91875C3.64995 9.76875 3.6312 9.61875 3.6187 9.46875C3.6062 9.31875 3.59995 9.1625 3.59995 9C3.59995 8.8375 3.6062 8.68125 3.6187 8.53125C3.6312 8.38125 3.64995 8.23125 3.67495 8.08125L2.0437 6.65625L3.48745 4.1625L5.54995 4.85625C5.78745 4.65625 6.04058 4.48125 6.30933 4.33125C6.57808 4.18125 6.8562 4.05 7.1437 3.9375L7.5562 1.8H10.4437L10.8562 3.9375C11.1437 4.05 11.4218 4.18125 11.6906 4.33125C11.9593 4.48125 12.2125 4.65625 12.45 4.85625L14.5125 4.1625L15.9562 6.65625L14.325 8.08125C14.35 8.23125 14.3687 8.38125 14.3812 8.53125C14.3937 8.68125 14.4 8.8375 14.4 9C14.4 9.1625 14.3937 9.31875 14.3812 9.46875C14.3687 9.61875 14.35 9.76875 14.325 9.91875L15.9562 11.3438L14.5125 13.8375L12.45 13.1438C12.2125 13.3438 11.9593 13.5188 11.6906 13.6688C11.4218 13.8188 11.1437 13.95 10.8562 14.0625L10.4437 16.2H7.5562ZM8.66245 14.85H9.33745L9.6937 12.9938C10.1687 12.9063 10.6125 12.7438 11.025 12.5063C11.4375 12.2688 11.7937 11.9688 12.0937 11.6063L13.8937 12.2063L14.2312 11.6438L12.8062 10.3875C12.8812 10.175 12.9406 9.95313 12.9843 9.72188C13.0281 9.49063 13.05 9.25 13.05 9C13.05 8.75 13.0281 8.50938 12.9843 8.27813C12.9406 8.04688 12.8812 7.825 12.8062 7.6125L14.2312 6.35625L13.8937 5.79375L12.0937 6.39375C11.7937 6.03125 11.4375 5.73125 11.025 5.49375C10.6125 5.25625 10.1687 5.09375 9.6937 5.00625L9.33745 3.15H8.66245L8.3062 5.00625C7.8312 5.09375 7.38745 5.25625 6.97495 5.49375C6.56245 5.73125 6.2062 6.03125 5.9062 6.39375L4.1062 5.79375L3.7687 6.35625L5.1937 7.6125C5.1187 7.825 5.05933 8.04688 5.01558 8.27813C4.97183 8.50938 4.94995 8.75 4.94995 9C4.94995 9.25 4.97183 9.49063 5.01558 9.72188C5.05933 9.95313 5.1187 10.175 5.1937 10.3875L3.7687 11.6438L4.1062 12.2063L5.9062 11.6063C6.2062 11.9688 6.56245 12.2688 6.97495 12.5063C7.38745 12.7438 7.8312 12.9063 8.3062 12.9938L8.66245 14.85ZM8.99995 11.7C9.74995 11.7 10.3875 11.4375 10.9125 10.9125C11.4375 10.3875 11.7 9.75 11.7 9C11.7 8.25 11.4375 7.6125 10.9125 7.0875C10.3875 6.5625 9.74995 6.3 8.99995 6.3C8.24995 6.3 7.61245 6.5625 7.08745 7.0875C6.56245 7.6125 6.29995 8.25 6.29995 9C6.29995 9.75 6.56245 10.3875 7.08745 10.9125C7.61245 11.4375 8.24995 11.7 8.99995 11.7Z" fill="#1E1F16"/>
</g>
</svg>
