<svg width="18" height="18" viewBox="0 0 18 18" fill="none" xmlns="http://www.w3.org/2000/svg">
<path d="M12.3749 11.25C11.9997 11.2499 11.6282 11.3251 11.2826 11.4711C10.9369 11.6171 10.6241 11.831 10.3626 12.1001L7.12117 10.0167C7.37615 9.36289 7.37615 8.63712 7.12117 7.98328L10.3626 5.89992C10.8495 6.39866 11.5042 6.69885 12.1998 6.74229C12.8955 6.78572 13.5824 6.56931 14.1276 6.13501C14.6727 5.70071 15.0372 5.07946 15.1503 4.39171C15.2634 3.70396 15.1171 2.99871 14.7398 2.41268C14.3625 1.82666 13.781 1.40162 13.1081 1.21996C12.4352 1.0383 11.7188 1.11297 11.0979 1.42949C10.4769 1.74602 9.99557 2.28184 9.74721 2.93308C9.49885 3.58432 9.50116 4.30458 9.75367 4.95422L6.51227 7.03758C6.12194 6.63685 5.62098 6.36163 5.07342 6.24709C4.52586 6.13255 3.95659 6.1839 3.43836 6.39457C2.92014 6.60525 2.47652 6.96568 2.1642 7.42978C1.85188 7.89389 1.68506 8.44059 1.68506 9C1.68506 9.55941 1.85188 10.1061 2.1642 10.5702C2.47652 11.0343 2.92014 11.3948 3.43836 11.6054C3.95659 11.8161 4.52586 11.8675 5.07342 11.7529C5.62098 11.6384 6.12194 11.3632 6.51227 10.9624L9.75367 13.0458C9.53653 13.6058 9.5044 14.2207 9.66198 14.8004C9.81957 15.38 10.1586 15.894 10.6294 16.267C11.1002 16.64 11.6781 16.8525 12.2784 16.8733C12.8788 16.8941 13.47 16.7222 13.9655 16.3827C14.4611 16.0432 14.8349 15.554 15.0323 14.9867C15.2297 14.4194 15.2402 13.8037 15.0624 13.23C14.8846 12.6562 14.5278 12.1545 14.0442 11.7982C13.5606 11.4419 12.9756 11.2498 12.3749 11.25ZM12.3749 2.25C12.7087 2.25 13.0349 2.34897 13.3124 2.5344C13.59 2.71982 13.8062 2.98337 13.934 3.29172C14.0617 3.60007 14.0951 3.93937 14.03 4.26672C13.9649 4.59406 13.8042 4.89474 13.5682 5.13074C13.3322 5.36675 13.0315 5.52746 12.7041 5.59258C12.3768 5.65769 12.0375 5.62427 11.7291 5.49655C11.4208 5.36883 11.1572 5.15253 10.9718 4.87503C10.7864 4.59752 10.6874 4.27126 10.6874 3.9375C10.6874 3.48995 10.8652 3.06073 11.1817 2.74426C11.4981 2.42779 11.9274 2.25 12.3749 2.25ZM4.49992 10.6875C4.16617 10.6875 3.83991 10.5885 3.5624 10.4031C3.28489 10.2177 3.0686 9.95413 2.94088 9.64578C2.81316 9.33743 2.77974 8.99813 2.84485 8.67079C2.90996 8.34344 3.07068 8.04276 3.30668 7.80676C3.54268 7.57076 3.84337 7.41004 4.17071 7.34493C4.49805 7.27981 4.83735 7.31323 5.1457 7.44096C5.45405 7.56868 5.7176 7.78497 5.90303 8.06248C6.08845 8.33998 6.18742 8.66625 6.18742 9C6.18742 9.44755 6.00964 9.87678 5.69317 10.1932C5.3767 10.5097 4.94748 10.6875 4.49992 10.6875ZM12.3749 15.75C12.0412 15.75 11.7149 15.651 11.4374 15.4656C11.1599 15.2802 10.9436 15.0166 10.8159 14.7083C10.6882 14.3999 10.6547 14.0606 10.7199 13.7333C10.785 13.4059 10.9457 13.1053 11.1817 12.8693C11.4177 12.6333 11.7184 12.4725 12.0457 12.4074C12.3731 12.3423 12.7124 12.3757 13.0207 12.5035C13.3291 12.6312 13.5926 12.8475 13.778 13.125C13.9635 13.4025 14.0624 13.7287 14.0624 14.0625C14.0624 14.5101 13.8846 14.9393 13.5682 15.2557C13.2517 15.5722 12.8225 15.75 12.3749 15.75Z" fill="#1E1F16"/>
</svg>
