<svg width="16" height="16" viewBox="0 0 16 16" fill="none" xmlns="http://www.w3.org/2000/svg">
<mask id="mask0_1153_1163" style="mask-type:alpha" maskUnits="userSpaceOnUse" x="0" y="0" width="16" height="16">
<rect width="16" height="16" fill="#D9D9D9"/>
</mask>
<g mask="url(#mask0_1153_1163)">
<path d="M3.80523 7.07817C3.46845 7.07817 3.20562 6.98372 3.01673 6.79483C2.82784 6.60594 2.7334 6.34311 2.7334 6.00633V3.80517C2.7334 3.46839 2.82784 3.20556 3.01673 3.01667C3.20562 2.82778 3.46845 2.73333 3.80523 2.73333H12.1949C12.5317 2.73333 12.7945 2.82778 12.9834 3.01667C13.1723 3.20556 13.2667 3.46839 13.2667 3.80517V6.00633C13.2667 6.34311 13.1723 6.60594 12.9834 6.79483C12.7945 6.98372 12.5317 7.07817 12.1949 7.07817H3.80523ZM3.80523 6.2115H12.1949C12.2548 6.2115 12.304 6.19228 12.3424 6.15383C12.3808 6.11539 12.4001 6.06622 12.4001 6.00633V3.80517C12.4001 3.74528 12.3808 3.69611 12.3424 3.65767C12.304 3.61922 12.2548 3.6 12.1949 3.6H3.80523C3.74534 3.6 3.69618 3.61922 3.65773 3.65767C3.61929 3.69611 3.60007 3.74528 3.60007 3.80517V6.00633C3.60007 6.06622 3.61929 6.11539 3.65773 6.15383C3.69618 6.19228 3.74534 6.2115 3.80523 6.2115ZM3.80523 13.2667C3.46845 13.2667 3.20562 13.1722 3.01673 12.9833C2.82784 12.7944 2.7334 12.5316 2.7334 12.1948V10C2.7334 9.66322 2.82784 9.40039 3.01673 9.2115C3.20562 9.02261 3.46845 8.92817 3.80523 8.92817H12.1949C12.5317 8.92817 12.7945 9.02261 12.9834 9.2115C13.1723 9.40039 13.2667 9.66322 13.2667 10V12.1948C13.2667 12.5316 13.1723 12.7944 12.9834 12.9833C12.7945 13.1722 12.5317 13.2667 12.1949 13.2667H3.80523ZM3.80523 12.4H12.1949C12.2548 12.4 12.304 12.3808 12.3424 12.3423C12.3808 12.3039 12.4001 12.2547 12.4001 12.1948V10C12.4001 9.94011 12.3808 9.89094 12.3424 9.8525C12.304 9.81406 12.2548 9.79483 12.1949 9.79483H3.80523C3.74534 9.79483 3.69618 9.81406 3.65773 9.8525C3.61929 9.89094 3.60007 9.94011 3.60007 10V12.1948C3.60007 12.2547 3.61929 12.3039 3.65773 12.3423C3.69618 12.3808 3.74534 12.4 3.80523 12.4Z" fill="white"/>
</g>
</svg>
